# xmcd
#
# Track frame offsets:
# 150
# 13700
# 29310
# 44190
#
# Disc length: 769 seconds
#
#
# Revision: 3
# Processed by: cddbd v1.5.2PL0 Copyright (c) Steve Scherf et al.
# Submitted via: FreeRIP 2.00 
#
DISCID=2f02ff04
DTITLE=Mr. Ed Jumps The Gun - Don`t Haha
DYEAR=1900
DGENRE=
TTITLE0=Don`t Haha, radio edit
TTITLE1=Zingara
TTITLE2=Ne Va Pas Ha Ha
TTITLE3=Shame
EXTD=
EXTT0=
EXTT1=
EXTT2=
EXTT3=
PLAYORDER=
